<?xml version="1.0" encoding="UTF-8" standalone="no"?><svg xmlns="http://www.w3.org/2000/svg" xmlns:xlink="http://www.w3.org/1999/xlink" contentStyleType="text/css" height="782px" preserveAspectRatio="none" style="width:403px;height:782px;background:#FFFFFF;" version="1.1" viewBox="0 0 403 782" width="403px" zoomAndPan="magnify"><defs/><g><ellipse cx="176.1563" cy="16" fill="#222222" rx="10" ry="10" style="stroke:none;stroke-width:1.0;"/><rect fill="#F1F1F1" height="34.1328" rx="12.5" ry="12.5" style="stroke:#181818;stroke-width:0.5;" width="144" x="104.1563" y="67"/><text fill="#000000" font-family="sans-serif" font-size="12" lengthAdjust="spacing" textLength="124" x="114.1563" y="88.6016">User forgot password</text><rect fill="#F1F1F1" height="34.1328" rx="12.5" ry="12.5" style="stroke:#181818;stroke-width:0.5;" width="85" x="133.6563" y="142"/><text fill="#000000" font-family="sans-serif" font-size="12" lengthAdjust="spacing" textLength="65" x="143.6563" y="163.6016">Enter email</text><g id="elem_#7"><polygon fill="#F1F1F1" points="176.1563,222,188.1563,234,176.1563,246,164.1563,234,176.1563,222" style="stroke:#181818;stroke-width:0.5;"/></g><rect fill="#F1F1F1" height="34.1328" rx="12.5" ry="12.5" style="stroke:#181818;stroke-width:0.5;" width="117" x="224.6563" y="217"/><text fill="#000000" font-family="sans-serif" font-size="12" lengthAdjust="spacing" textLength="97" x="234.6563" y="238.6016">Don't send email</text><rect fill="#F1F1F1" height="34.1328" rx="12.5" ry="12.5" style="stroke:#181818;stroke-width:0.5;" width="297" x="27.6563" y="292"/><text fill="#000000" font-family="sans-serif" font-size="12" lengthAdjust="spacing" textLength="277" x="37.6563" y="313.6016">Generate password reset link with special token</text><rect fill="#F1F1F1" height="34.1328" rx="12.5" ry="12.5" style="stroke:#181818;stroke-width:0.5;" width="216" x="68.1563" y="367"/><text fill="#000000" font-family="sans-serif" font-size="12" lengthAdjust="spacing" textLength="196" x="78.1563" y="388.6016">User clicks on password reset link</text><rect fill="#F1F1F1" height="34.1328" rx="12.5" ry="12.5" style="stroke:#181818;stroke-width:0.5;" width="173" x="89.6563" y="442"/><text fill="#000000" font-family="sans-serif" font-size="12" lengthAdjust="spacing" textLength="153" x="99.6563" y="463.6016">User enters new password</text><rect fill="#F1F1F1" height="34.1328" rx="12.5" ry="12.5" style="stroke:#181818;stroke-width:0.5;" width="284" x="34.1563" y="517"/><text fill="#000000" font-family="sans-serif" font-size="12" lengthAdjust="spacing" textLength="264" x="44.1563" y="538.6016">Send new password and token back to server</text><g id="elem_#20"><polygon fill="#F1F1F1" points="176.1563,597,188.1563,609,176.1563,621,164.1563,609,176.1563,597" style="stroke:#181818;stroke-width:0.5;"/></g><rect fill="#F1F1F1" height="34.1328" rx="12.5" ry="12.5" style="stroke:#181818;stroke-width:0.5;" width="95" x="228.6563" y="592"/><text fill="#000000" font-family="sans-serif" font-size="12" lengthAdjust="spacing" textLength="75" x="238.6563" y="613.6016">Don't update</text><g id="elem_#25"><polygon fill="#F1F1F1" points="176.1563,672,188.1563,684,176.1563,696,164.1563,684,176.1563,672" style="stroke:#181818;stroke-width:0.5;"/></g><rect fill="#F1F1F1" height="34.1328" rx="12.5" ry="12.5" style="stroke:#181818;stroke-width:0.5;" width="173" x="224.6563" y="667"/><text fill="#000000" font-family="sans-serif" font-size="12" lengthAdjust="spacing" textLength="153" x="234.6563" y="688.6016">Email changed, do nothing</text><rect fill="#F1F1F1" height="34.1328" rx="12.5" ry="12.5" style="stroke:#181818;stroke-width:0.5;" width="122" x="115.1563" y="742"/><text fill="#000000" font-family="sans-serif" font-size="12" lengthAdjust="spacing" textLength="102" x="125.1563" y="763.6016">Update password</text><!--MD5=[403a3eb7818fbb93257ffc5ebb8d4e11]
link start to User forgot password--><g id="link_start_User forgot password"><path d="M176.1563,26.46 C176.1563,35.38 176.1563,49.1 176.1563,60.78 " fill="none" id="start-to-User forgot password" style="stroke:#181818;stroke-width:1.0;"/><polygon fill="#181818" points="176.1563,65.68,180.1563,56.68,176.1563,60.68,172.1563,56.68,176.1563,65.68" style="stroke:#181818;stroke-width:1.0;"/></g><!--MD5=[37d1a8761e11d132f71fe8a38b1d82ff]
link User forgot password to Enter email--><g id="link_User forgot password_Enter email"><path d="M176.1563,101.2 C176.1563,111.34 176.1563,124.54 176.1563,135.66 " fill="none" id="User forgot password-to-Enter email" style="stroke:#181818;stroke-width:1.0;"/><polygon fill="#181818" points="176.1563,140.59,180.1563,131.59,176.1563,135.59,172.1563,131.59,176.1563,140.59" style="stroke:#181818;stroke-width:1.0;"/></g><!--MD5=[ab1c774d815f421d717284ccb53db5f1]
link Enter email to #7--><g id="link_Enter email_#7"><path d="M176.1563,176.2 C176.1563,187.93 176.1563,203.77 176.1563,215.74 " fill="none" id="Enter email-to-#7" style="stroke:#181818;stroke-width:1.0;"/><polygon fill="#181818" points="176.1563,220.6,180.1563,211.6,176.1563,215.6,172.1563,211.6,176.1563,220.6" style="stroke:#181818;stroke-width:1.0;"/><text fill="#000000" font-family="sans-serif" font-size="11" lengthAdjust="spacing" textLength="123" x="32.7844" y="214.298">Is the email registered?</text></g><!--MD5=[0ac87fa6ca0687e87e79849b8383ca6d]
link #7 to Don't send email--><g id="link_#7_Don't send email"><path d="M188.8463,234 C196.5863,234 207.1163,234 218.3363,234 " fill="none" id="#7-to-Don't send email" style="stroke:#181818;stroke-width:1.0;"/><polygon fill="#181818" points="223.2663,234,214.2663,230,218.2663,234,214.2663,238,223.2663,234" style="stroke:#181818;stroke-width:1.0;"/><text fill="#000000" font-family="sans-serif" font-size="11" lengthAdjust="spacing" textLength="15" x="198.9063" y="228.6348">No</text></g><!--MD5=[413006342d3182491b69a11bce5713a4]
link #7 to Generate password reset link with special token--><g id="link_#7_Generate password reset link with special token"><path d="M176.1563,246.41 C176.1563,256.91 176.1563,272.78 176.1563,285.78 " fill="none" id="#7-to-Generate password reset link with special token" style="stroke:#181818;stroke-width:1.0;"/><polygon fill="#181818" points="176.1563,290.53,180.1563,281.53,176.1563,285.53,172.1563,281.53,176.1563,290.53" style="stroke:#181818;stroke-width:1.0;"/></g><!--MD5=[c95d5c9b60955ef7eb3eb34b70014e8b]
link Generate password reset link with special token to User clicks on password reset link--><g id="link_Generate password reset link with special token_User clicks on password reset link"><path d="M176.1563,326.2 C176.1563,336.34 176.1563,349.54 176.1563,360.66 " fill="none" id="Generate password reset link with special token-to-User clicks on password reset link" style="stroke:#181818;stroke-width:1.0;"/><polygon fill="#181818" points="176.1563,365.59,180.1563,356.59,176.1563,360.59,172.1563,356.59,176.1563,365.59" style="stroke:#181818;stroke-width:1.0;"/></g><!--MD5=[eeeb60ea482ce3362ba5bdbdb1df4da6]
link User clicks on password reset link to User enters new password--><g id="link_User clicks on password reset link_User enters new password"><path d="M176.1563,401.2 C176.1563,411.34 176.1563,424.54 176.1563,435.66 " fill="none" id="User clicks on password reset link-to-User enters new password" style="stroke:#181818;stroke-width:1.0;"/><polygon fill="#181818" points="176.1563,440.59,180.1563,431.59,176.1563,435.59,172.1563,431.59,176.1563,440.59" style="stroke:#181818;stroke-width:1.0;"/></g><!--MD5=[ba160494b7957646679821da1983a2d5]
link User enters new password to Send new password and token back to server--><g id="link_User enters new password_Send new password and token back to server"><path d="M176.1563,476.2 C176.1563,486.34 176.1563,499.54 176.1563,510.66 " fill="none" id="User enters new password-to-Send new password and token back to server" style="stroke:#181818;stroke-width:1.0;"/><polygon fill="#181818" points="176.1563,515.59,180.1563,506.59,176.1563,510.59,172.1563,506.59,176.1563,515.59" style="stroke:#181818;stroke-width:1.0;"/></g><!--MD5=[667b70664e233162832a2a94a70cda21]
link Send new password and token back to server to #20--><g id="link_Send new password and token back to server_#20"><path d="M176.1563,551.2 C176.1563,562.93 176.1563,578.77 176.1563,590.74 " fill="none" id="Send new password and token back to server-to-#20" style="stroke:#181818;stroke-width:1.0;"/><polygon fill="#181818" points="176.1563,595.6,180.1563,586.6,176.1563,590.6,172.1563,586.6,176.1563,595.6" style="stroke:#181818;stroke-width:1.0;"/><text fill="#000000" font-family="sans-serif" font-size="11" lengthAdjust="spacing" textLength="77" x="80.3875" y="586.4976">Token expired</text></g><!--MD5=[aefa4610dc9a0b3e3206efbea23b7a77]
link #20 to Don't update--><g id="link_#20_Don't update"><path d="M188.8263,609 C197.5763,609 209.8663,609 222.4763,609 " fill="none" id="#20-to-Don't update" style="stroke:#181818;stroke-width:1.0;"/><polygon fill="#181818" points="227.2763,609,218.2763,605,222.2763,609,218.2763,613,227.2763,609" style="stroke:#181818;stroke-width:1.0;"/><text fill="#000000" font-family="sans-serif" font-size="11" lengthAdjust="spacing" textLength="19" x="198.9063" y="603.6348">Yes</text></g><!--MD5=[a49be9a334b93785f0a7c83dea031cd3]
link #20 to #25--><g id="link_#20_#25"><path d="M176.1563,621.41 C176.1563,633.23 176.1563,651.86 176.1563,665.54 " fill="none" id="#20-to-#25" style="stroke:#181818;stroke-width:1.0;"/><polygon fill="#181818" points="176.1563,670.43,180.1563,661.43,176.1563,665.43,172.1563,661.43,176.1563,670.43" style="stroke:#181818;stroke-width:1.0;"/><text fill="#000000" font-family="sans-serif" font-size="11" lengthAdjust="spacing" textLength="150" x="6" y="665.2024">User's email is token's email</text></g><!--MD5=[eb501ffcd2f78cddeed43c7795ddbc01]
link #25 to Email changed, do nothing--><g id="link_#25_Email changed, do nothing"><path d="M188.6163,684 C196.2463,684 206.7763,684 218.4863,684 " fill="none" id="#25-to-Email changed, do nothing" style="stroke:#181818;stroke-width:1.0;"/><polygon fill="#181818" points="223.3263,684,214.3263,680,218.3263,684,214.3263,688,223.3263,684" style="stroke:#181818;stroke-width:1.0;"/><text fill="#000000" font-family="sans-serif" font-size="11" lengthAdjust="spacing" textLength="15" x="198.9063" y="678.6348">No</text></g><!--MD5=[b9631baf16ee67430dc4582ead0205f3]
link #25 to Update password--><g id="link_#25_Update password"><path d="M176.1563,696.41 C176.1563,706.91 176.1563,722.78 176.1563,735.78 " fill="none" id="#25-to-Update password" style="stroke:#181818;stroke-width:1.0;"/><polygon fill="#181818" points="176.1563,740.53,180.1563,731.53,176.1563,735.53,172.1563,731.53,176.1563,740.53" style="stroke:#181818;stroke-width:1.0;"/></g><!--MD5=[54be089e1199c1496b0aedbac8918097]
@startuml
(*) - -> "User forgot password"
- -> "Enter email"
If "Is the email registered?" then
    -right-> [No] "Don't send email"
else
    - -> "Generate password reset link with special token"
    - -> "User clicks on password reset link"
    - -> "User enters new password"
    - -> "Send new password and token back to server"
    If "Token expired" then
        -right-> [Yes] "Don't update"
    else
        If "User's email is token's email" then
            -right-> [No] "Email changed, do nothing"
        else
            - -> Update password
        endif
    endif
endif
@enduml

PlantUML version 1.2022.7(Mon Aug 22 13:01:30 EDT 2022)
(GPL source distribution)
Java Runtime: OpenJDK Runtime Environment
JVM: OpenJDK 64-Bit Server VM
Default Encoding: UTF-8
Language: en
Country: US
--></g></svg>