<?xml version="1.0" encoding="UTF-8" standalone="no"?><svg xmlns="http://www.w3.org/2000/svg" xmlns:xlink="http://www.w3.org/1999/xlink" contentStyleType="text/css" height="801px" preserveAspectRatio="none" style="width:359px;height:801px;background:#FFFFFF;" version="1.1" viewBox="0 0 359 801" width="359px" zoomAndPan="magnify"><defs/><g><ellipse cx="232" cy="16" fill="#222222" rx="10" ry="10" style="stroke:none;stroke-width:1.0;"/><rect fill="#F1F1F1" height="34.1328" rx="12.5" ry="12.5" style="stroke:#181818;stroke-width:0.5;" width="99" x="182.5" y="67"/><text fill="#000000" font-family="sans-serif" font-size="12" lengthAdjust="spacing" textLength="79" x="192.5" y="88.6016">Go to website</text><g id="elem_#5"><polygon fill="#F1F1F1" points="232,142,244,154,232,166,220,154,232,142" style="stroke:#181818;stroke-width:0.5;"/></g><rect fill="#F1F1F1" height="34.1328" rx="12.5" ry="12.5" style="stroke:#181818;stroke-width:0.5;" width="142" x="110" y="220"/><text fill="#000000" font-family="sans-serif" font-size="12" lengthAdjust="spacing" textLength="122" x="120" y="241.6016">Register new account</text><g id="elem_#10"><polygon fill="#F1F1F1" points="182,300,194,312,182,324,170,312,182,300" style="stroke:#181818;stroke-width:0.5;"/></g><rect fill="#F1F1F1" height="34.1328" rx="12.5" ry="12.5" style="stroke:#181818;stroke-width:0.5;" width="133" x="118.5" y="383"/><text fill="#000000" font-family="sans-serif" font-size="12" lengthAdjust="spacing" textLength="113" x="128.5" y="404.6016">Create new account</text><rect fill="#F1F1F1" height="34.1328" rx="12.5" ry="12.5" style="stroke:#181818;stroke-width:0.5;" width="98" x="185" y="458"/><text fill="#000000" font-family="sans-serif" font-size="12" lengthAdjust="spacing" textLength="78" x="195" y="479.6016">Try logging in</text><rect fill="#F1F1F1" height="34.1328" rx="12.5" ry="12.5" style="stroke:#181818;stroke-width:0.5;" width="122" x="7" y="295"/><text fill="#000000" font-family="sans-serif" font-size="12" lengthAdjust="spacing" textLength="102" x="17" y="316.6016">Try another email</text><g id="elem_#21"><polygon fill="#F1F1F1" points="234,533,246,545,234,557,222,545,234,533" style="stroke:#181818;stroke-width:0.5;"/></g><rect fill="#F1F1F1" height="34.1328" rx="12.5" ry="12.5" style="stroke:#181818;stroke-width:0.5;" width="162" x="80" y="611"/><text fill="#000000" font-family="sans-serif" font-size="12" lengthAdjust="spacing" textLength="142" x="90" y="632.6016">Request Password Reset</text><rect fill="#F1F1F1" height="34.1328" rx="12.5" ry="12.5" style="stroke:#181818;stroke-width:0.5;" width="176" x="73" y="686"/><text fill="#000000" font-family="sans-serif" font-size="12" lengthAdjust="spacing" textLength="156" x="83" y="707.6016">Send password reset email</text><rect fill="#F1F1F1" height="34.1328" rx="12.5" ry="12.5" style="stroke:#181818;stroke-width:0.5;" width="273" x="24.5" y="761"/><text fill="#000000" font-family="sans-serif" font-size="12" lengthAdjust="spacing" textLength="253" x="34.5" y="782.6016">Reset password after link in email is clicked</text><rect fill="#F1F1F1" height="34.1328" rx="12.5" ry="12.5" style="stroke:#181818;stroke-width:0.5;" width="91" x="262.5" y="611"/><text fill="#000000" font-family="sans-serif" font-size="12" lengthAdjust="spacing" textLength="71" x="272.5" y="632.6016">Authenticate</text><ellipse cx="308" cy="703" fill="none" rx="10" ry="10" style="stroke:#222222;stroke-width:1.0;"/><ellipse cx="308.5" cy="703.5" fill="#222222" rx="6" ry="6" style="stroke:none;stroke-width:1.0;"/><!--MD5=[71095cc1d1910176839890364e6c3e90]
link start to Go to website--><g id="link_start_Go to website"><path d="M232,26.46 C232,35.38 232,49.1 232,60.78 " fill="none" id="start-to-Go to website" style="stroke:#181818;stroke-width:1.0;"/><polygon fill="#181818" points="232,65.68,236,56.68,232,60.68,228,56.68,232,65.68" style="stroke:#181818;stroke-width:1.0;"/></g><!--MD5=[53471da3f6ee6dfe073fd92ebc7411fe]
link Go to website to #5--><g id="link_Go to website_#5"><path d="M232,101.46 C232,111.84 232,125.23 232,135.76 " fill="none" id="Go to website-to-#5" style="stroke:#181818;stroke-width:1.0;"/><polygon fill="#181818" points="232,140.58,236,131.58,232,135.58,228,131.58,232,140.58" style="stroke:#181818;stroke-width:1.0;"/><text fill="#000000" font-family="sans-serif" font-size="11" lengthAdjust="spacing" textLength="66" x="149.9125" y="131.4678">Has account</text></g><!--MD5=[8fbb4394aa56fb080f508a12329f03e4]
link #5 to Register new account--><g id="link_#5_Register new account"><path d="M227.65,161.91 C220.34,173.52 205.31,197.39 194.27,214.92 " fill="none" id="#5-to-Register new account" style="stroke:#181818;stroke-width:1.0;"/><polygon fill="#181818" points="191.28,218.68,199.4686,213.2076,193.9505,214.4529,192.7052,208.9348,191.28,218.68" style="stroke:#181818;stroke-width:1.0;"/><text fill="#000000" font-family="sans-serif" font-size="11" lengthAdjust="spacing" textLength="15" x="213" y="197.6348">No</text></g><!--MD5=[f52e3b8963084790596e17890718dd92]
link Register new account to #10--><g id="link_Register new account_#10"><path d="M181.22,254.2 C181.38,265.93 181.6,281.77 181.76,293.74 " fill="none" id="Register new account-to-#10" style="stroke:#181818;stroke-width:1.0;"/><polygon fill="#181818" points="181.84,298.6,185.711,289.5438,181.7686,293.6005,177.7118,289.6581,181.84,298.6" style="stroke:#181818;stroke-width:1.0;"/><text fill="#000000" font-family="sans-serif" font-size="11" lengthAdjust="spacing" textLength="63" x="197.1183" y="289.4976">Email exists</text></g><!--MD5=[f7cf44e1bee234358036be5ecf4e5f6a]
link #10 to Create new account--><g id="link_#10_Create new account"><path d="M182.39,324.24 C182.86,337.54 183.64,360 184.23,376.84 " fill="none" id="#10-to-Create new account" style="stroke:#181818;stroke-width:1.0;"/><polygon fill="#181818" points="184.43,381.76,188.1193,372.6282,184.2587,376.7629,180.124,372.9023,184.43,381.76" style="stroke:#181818;stroke-width:1.0;"/><text fill="#000000" font-family="sans-serif" font-size="11" lengthAdjust="spacing" textLength="15" x="185" y="360.6348">No</text></g><!--MD5=[895859ff5d225019c0334376ec9806ea]
link Create new account to Try logging in--><g id="link_Create new account_Try logging in"><path d="M195.87,417.2 C202.93,427.71 212.2,441.52 219.83,452.89 " fill="none" id="Create new account-to-Try logging in" style="stroke:#181818;stroke-width:1.0;"/><polygon fill="#181818" points="222.99,456.59,221.2644,446.8935,220.1902,452.4474,214.6363,451.3732,222.99,456.59" style="stroke:#181818;stroke-width:1.0;"/></g><!--MD5=[86ecdbcb3ed9244453c2bf35921521ad]
reverse link Try another email to #10--><g id="link_Try another email_#10"><path d="M135,312 C148.13,312 160.53,312 169.3,312 " fill="none" id="Try another email-backto-#10" style="stroke:#181818;stroke-width:1.0;"/><polygon fill="#181818" points="130.34,312,139.34,316,135.34,312,139.34,308,130.34,312" style="stroke:#181818;stroke-width:1.0;"/><text fill="#000000" font-family="sans-serif" font-size="11" lengthAdjust="spacing" textLength="19" x="140" y="306.6348">Yes</text></g><!--MD5=[1c66cc172a56e49ff6338727d0586027]
link #5 to Try logging in--><g id="link_#5_Try logging in"><path d="M238.25,160.16 C251.87,172.02 283,202.76 283,236 C283,236 283,236 283,401 C283,421.33 269.73,440.27 257,453.76 " fill="none" id="#5-to-Try logging in" style="stroke:#181818;stroke-width:1.0;"/><polygon fill="#181818" points="254.08,456.77,263.2362,453.1418,257.5796,453.1989,257.5225,447.5424,254.08,456.77" style="stroke:#181818;stroke-width:1.0;"/><text fill="#000000" font-family="sans-serif" font-size="11" lengthAdjust="spacing" textLength="19" x="284" y="316.6348">Yes</text></g><!--MD5=[4d165cdd08545d0d0df3b67796881be2]
link Try logging in to #21--><g id="link_Try logging in_#21"><path d="M234,492.46 C234,502.84 234,516.23 234,526.76 " fill="none" id="Try logging in-to-#21" style="stroke:#181818;stroke-width:1.0;"/><polygon fill="#181818" points="234,531.58,238,522.58,234,526.58,230,522.58,234,531.58" style="stroke:#181818;stroke-width:1.0;"/><text fill="#000000" font-family="sans-serif" font-size="11" lengthAdjust="spacing" textLength="118" x="95.7188" y="525.047">Remembers password</text></g><!--MD5=[5ce8945d17d4b007233d63c8802fce7f]
link #21 to Request Password Reset--><g id="link_#21_Request Password Reset"><path d="M228.51,552.09 C218.3,563.42 195.96,588.21 179.76,606.18 " fill="none" id="#21-to-Request Password Reset" style="stroke:#181818;stroke-width:1.0;"/><polygon fill="#181818" points="176.79,609.59,185.7924,605.5953,180.1427,605.8806,179.8574,600.231,176.79,609.59" style="stroke:#181818;stroke-width:1.0;"/><text fill="#000000" font-family="sans-serif" font-size="11" lengthAdjust="spacing" textLength="15" x="206" y="588.6348">No</text></g><!--MD5=[3e28c59b37c7e5d05f7278d364bc9a71]
link Request Password Reset to Send password reset email--><g id="link_Request Password Reset_Send password reset email"><path d="M161,645.2 C161,655.34 161,668.54 161,679.66 " fill="none" id="Request Password Reset-to-Send password reset email" style="stroke:#181818;stroke-width:1.0;"/><polygon fill="#181818" points="161,684.59,165,675.59,161,679.59,157,675.59,161,684.59" style="stroke:#181818;stroke-width:1.0;"/></g><!--MD5=[bae838bcdf685d7cc83a28efe8894d78]
link Send password reset email to Reset password after link in email is clicked--><g id="link_Send password reset email_Reset password after link in email is clicked"><path d="M161,720.2 C161,730.34 161,743.54 161,754.66 " fill="none" id="Send password reset email-to-Reset password after link in email is clicked" style="stroke:#181818;stroke-width:1.0;"/><polygon fill="#181818" points="161,759.59,165,750.59,161,754.59,157,750.59,161,759.59" style="stroke:#181818;stroke-width:1.0;"/></g><!--MD5=[8725de97f174b7b9cc36c766ede3c5e7]
link #21 to Authenticate--><g id="link_#21_Authenticate"><path d="M239.56,552.09 C249.91,563.42 272.56,588.21 288.98,606.18 " fill="none" id="#21-to-Authenticate" style="stroke:#181818;stroke-width:1.0;"/><polygon fill="#181818" points="292.01,609.59,288.9049,600.2434,288.6424,605.8942,282.9916,605.6316,292.01,609.59" style="stroke:#181818;stroke-width:1.0;"/><text fill="#000000" font-family="sans-serif" font-size="11" lengthAdjust="spacing" textLength="19" x="274" y="588.6348">Yes</text></g><!--MD5=[2311468d01bb699aedd810baa0e74ec4]
link Authenticate to end--><g id="link_Authenticate_end"><path d="M308,645.2 C308,657.65 308,674.72 308,686.88 " fill="none" id="Authenticate-to-end" style="stroke:#181818;stroke-width:1.0;"/><polygon fill="#181818" points="308,691.75,312,682.75,308,686.75,304,682.75,308,691.75" style="stroke:#181818;stroke-width:1.0;"/></g><!--MD5=[b4cd48c05c9a81ceae8fe3ce92e243f3]
@startuml
(*) - -> "Go to website"
If "Has account" then
    - -> [No] "Register new account"
    If "Email exists" then
        - -> [No] "Create new account"
        - -> "Try logging in"
    else
        -left-> [Yes] "Try another email"
    endif
else
    - -> [Yes] "Try logging in"
    If "Remembers password" then
        - -> [No] "Request Password Reset"
        - -> "Send password reset email"
        - -> "Reset password after link in email is clicked"
    else
        - -> [Yes] "Authenticate"
        - -> (*)
    endif
endif
@enduml

PlantUML version 1.2022.7(Mon Aug 22 13:01:30 EDT 2022)
(GPL source distribution)
Java Runtime: OpenJDK Runtime Environment
JVM: OpenJDK 64-Bit Server VM
Default Encoding: UTF-8
Language: en
Country: US
--></g></svg>