<?xml version="1.0" encoding="UTF-8" standalone="no"?><svg xmlns="http://www.w3.org/2000/svg" xmlns:xlink="http://www.w3.org/1999/xlink" contentStyleType="text/css" height="345px" preserveAspectRatio="none" style="width:281px;height:345px;background:#FFFFFF;" version="1.1" viewBox="0 0 281 345" width="281px" zoomAndPan="magnify"><defs/><g><ellipse cx="141" cy="16" fill="#222222" rx="10" ry="10" style="stroke:none;stroke-width:1.0;"/><rect fill="#F1F1F1" height="34.1328" rx="12.5" ry="12.5" style="stroke:#181818;stroke-width:0.5;" width="139" x="71.5" y="67"/><text fill="#000000" font-family="sans-serif" font-size="12" lengthAdjust="spacing" textLength="119" x="81.5" y="88.6016">Timer button clicked</text><g id="elem_#5"><polygon fill="#F1F1F1" points="141,147,153,159,141,171,129,159,141,147" style="stroke:#181818;stroke-width:0.5;"/></g><rect fill="#F1F1F1" height="34.1328" rx="12.5" ry="12.5" style="stroke:#181818;stroke-width:0.5;" width="80" x="190" y="142"/><text fill="#000000" font-family="sans-serif" font-size="12" lengthAdjust="spacing" textLength="60" x="200" y="163.6016">Start timer</text><rect fill="#F1F1F1" height="34.1328" rx="12.5" ry="12.5" style="stroke:#181818;stroke-width:0.5;" width="79" x="101.5" y="230"/><text fill="#000000" font-family="sans-serif" font-size="12" lengthAdjust="spacing" textLength="59" x="111.5" y="251.6016">Stop timer</text><rect fill="#F1F1F1" height="34.1328" rx="12.5" ry="12.5" style="stroke:#181818;stroke-width:0.5;" width="268" x="7" y="305"/><text fill="#000000" font-family="sans-serif" font-size="12" lengthAdjust="spacing" textLength="248" x="17" y="326.6016">POST new task with current time and name</text><!--MD5=[129f7f1cf1dfee4ecc2f29893e0a3143]
link start to Timer button clicked--><g id="link_start_Timer button clicked"><path d="M141,26.46 C141,35.38 141,49.1 141,60.78 " fill="none" id="start-to-Timer button clicked" style="stroke:#181818;stroke-width:1.0;"/><polygon fill="#181818" points="141,65.68,145,56.68,141,60.68,137,56.68,141,65.68" style="stroke:#181818;stroke-width:1.0;"/></g><!--MD5=[c738589ba151b49ac667fb33983d9271]
link Timer button clicked to #5--><g id="link_Timer button clicked_#5"><path d="M141,101.2 C141,112.93 141,128.77 141,140.74 " fill="none" id="Timer button clicked-to-#5" style="stroke:#181818;stroke-width:1.0;"/><polygon fill="#181818" points="141,145.6,145,136.6,141,140.6,137,136.6,141,145.6" style="stroke:#181818;stroke-width:1.0;"/><text fill="#000000" font-family="sans-serif" font-size="11" lengthAdjust="spacing" textLength="91" x="30.0938" y="137.3937">Is timer running?</text></g><!--MD5=[6e5504187352ee67c65b89f2e7299dcf]
link #5 to Start timer--><g id="link_#5_Start timer"><path d="M153.38,159 C161.43,159 172.49,159 183.7,159 " fill="none" id="#5-to-Start timer" style="stroke:#181818;stroke-width:1.0;"/><polygon fill="#181818" points="188.56,159,179.56,155,183.56,159,179.56,163,188.56,159" style="stroke:#181818;stroke-width:1.0;"/><text fill="#000000" font-family="sans-serif" font-size="11" lengthAdjust="spacing" textLength="15" x="164" y="153.6348">No</text></g><!--MD5=[3289c0afdbf7ffe6cca78f29327a8fee]
link #5 to Stop timer--><g id="link_#5_Stop timer"><path d="M141,171.6 C141,184.91 141,207.05 141,223.73 " fill="none" id="#5-to-Stop timer" style="stroke:#181818;stroke-width:1.0;"/><polygon fill="#181818" points="141,228.59,145,219.59,141,223.59,137,219.59,141,228.59" style="stroke:#181818;stroke-width:1.0;"/><text fill="#000000" font-family="sans-serif" font-size="11" lengthAdjust="spacing" textLength="19" x="142" y="207.6348">Yes</text></g><!--MD5=[da51f7855ae18e18eb63043d3c6a589f]
link Stop timer to POST new task with current time and name--><g id="link_Stop timer_POST new task with current time and name"><path d="M141,264.2 C141,274.34 141,287.54 141,298.66 " fill="none" id="Stop timer-to-POST new task with current time and name" style="stroke:#181818;stroke-width:1.0;"/><polygon fill="#181818" points="141,303.59,145,294.59,141,298.59,137,294.59,141,303.59" style="stroke:#181818;stroke-width:1.0;"/></g><!--MD5=[4ebc679dd95219b44dc2b3ba0c3d19f7]
@startuml
(*) - -> "Timer button clicked"
If "Is timer running?" then
    -right-> [No] "Start timer"
else
    - -> [Yes] "Stop timer"
    - -> "POST new task with current time and name"
endif
@enduml

PlantUML version 1.2022.7(Mon Aug 22 13:01:30 EDT 2022)
(GPL source distribution)
Java Runtime: OpenJDK Runtime Environment
JVM: OpenJDK 64-Bit Server VM
Default Encoding: UTF-8
Language: en
Country: US
--></g></svg>