<?xml version="1.0" encoding="UTF-8" standalone="no"?><svg xmlns="http://www.w3.org/2000/svg" xmlns:xlink="http://www.w3.org/1999/xlink" contentStyleType="text/css" height="950px" preserveAspectRatio="none" style="width:1352px;height:950px;background:#FFFFFF;" version="1.1" viewBox="0 0 1352 950" width="1352px" zoomAndPan="magnify"><defs/><g><!--MD5=[127236f5617f1533efdd420b31f29be1]
cluster Mailgun--><g id="cluster_Mailgun"><rect fill="none" height="81" rx="2.5" ry="2.5" style="stroke:#181818;stroke-width:1.0;" width="159" x="148" y="784"/><text fill="#000000" font-family="sans-serif" font-size="14" font-weight="bold" lengthAdjust="spacing" textLength="58" x="198.5" y="799.5352">Mailgun</text></g><!--MD5=[6528143b867d1c9970d04da3aade911e]
cluster Email--><g id="cluster_Email"><rect fill="none" height="166" rx="2.5" ry="2.5" style="stroke:#181818;stroke-width:1.0;" width="217" x="372" y="778"/><text fill="#000000" font-family="sans-serif" font-size="14" font-weight="bold" lengthAdjust="spacing" textLength="40" x="460.5" y="793.5352">Email</text></g><!--MD5=[678cf225ed631456e5129914e9e3fa09]
cluster Website--><g id="cluster_Website"><rect fill="none" height="747" rx="2.5" ry="2.5" style="stroke:#181818;stroke-width:1.0;" width="1141" x="87" y="7"/><text fill="#000000" font-family="sans-serif" font-size="14" font-weight="bold" lengthAdjust="spacing" textLength="57" x="629" y="22.5352">Website</text></g><!--MD5=[b4e09d266be9964199f2622adcc056fa]
cluster Backend--><g id="cluster_Backend"><rect fill="none" height="85" rx="2.5" ry="2.5" style="stroke:#181818;stroke-width:1.0;" width="173" x="837" y="382"/><text fill="#000000" font-family="sans-serif" font-size="14" font-weight="bold" lengthAdjust="spacing" textLength="59" x="894" y="397.5352">Backend</text></g><!--MD5=[fca8240bc233c06068545f9c8883ae88]
cluster Frontend--><g id="cluster_Frontend"><rect fill="none" height="127" rx="2.5" ry="2.5" style="stroke:#181818;stroke-width:1.0;" width="370.5" x="412" y="155"/><text fill="#000000" font-family="sans-serif" font-size="14" font-weight="bold" lengthAdjust="spacing" textLength="64" x="565.25" y="170.5352">Frontend</text></g><!--MD5=[82f4bd93ce31bbd598d1ceea8ec42d38]
cluster Tasks--><g id="cluster_Tasks"><rect fill="none" height="282" rx="2.5" ry="2.5" style="stroke:#181818;stroke-width:1.0;" width="166" x="1038" y="80"/><text fill="#000000" font-family="sans-serif" font-size="14" font-weight="bold" lengthAdjust="spacing" textLength="43" x="1099.5" y="95.5352">Tasks</text></g><!--MD5=[20596331c9b9f4fde36943293773a33d]
cluster Settings--><g id="cluster_Settings"><rect fill="none" height="156" rx="2.5" ry="2.5" style="stroke:#181818;stroke-width:1.0;" width="192" x="617" y="347"/><text fill="#000000" font-family="sans-serif" font-size="14" font-weight="bold" lengthAdjust="spacing" textLength="59" x="683.5" y="362.5352">Settings</text></g><!--MD5=[d218cd141be9b83104949cc4c5ed4d6d]
cluster Timer--><g id="cluster_Timer"><rect fill="none" height="81" rx="2.5" ry="2.5" style="stroke:#181818;stroke-width:1.0;" width="368" x="633" y="50"/><text fill="#000000" font-family="sans-serif" font-size="14" font-weight="bold" lengthAdjust="spacing" textLength="43" x="795.5" y="65.5352">Timer</text></g><!--MD5=[ebcf87c1ae8daa9293e64489194cef3e]
cluster Public--><g id="cluster_Public"><rect fill="none" height="228" rx="2.5" ry="2.5" style="stroke:#181818;stroke-width:1.0;" width="233" x="111" y="371"/><text fill="#000000" font-family="sans-serif" font-size="14" font-weight="bold" lengthAdjust="spacing" textLength="44" x="205.5" y="386.5352">Public</text></g><!--MD5=[edc9bfd5752293baee9a98832b0ddf2c]
cluster EmailLinks--><g id="cluster_EmailLinks"><rect fill="none" height="153" rx="2.5" ry="2.5" style="stroke:#181818;stroke-width:1.0;" width="182" x="622" y="577"/><text fill="#000000" font-family="sans-serif" font-size="14" font-weight="bold" lengthAdjust="spacing" textLength="79" x="673.5" y="592.5352">EmailLinks</text></g><g id="elem_Send Email"><ellipse cx="227.4325" cy="834.0865" fill="#F1F1F1" rx="63.4325" ry="15.0865" style="stroke:#181818;stroke-width:0.5;"/><text fill="#000000" font-family="sans-serif" font-size="14" lengthAdjust="spacing" textLength="75" x="186.9325" y="838.1041">Send Email</text></g><g id="elem_Password Reset Email"><ellipse cx="480.5511" cy="833.9102" fill="#F1F1F1" rx="92.5511" ry="20.9102" style="stroke:#181818;stroke-width:0.5;"/><text fill="#000000" font-family="sans-serif" font-size="14" lengthAdjust="spacing" textLength="147" x="407.0511" y="837.2012">Password Reset Email</text></g><g id="elem_Verification Email"><ellipse cx="480.3912" cy="908.9782" fill="#F1F1F1" rx="80.3912" ry="18.4782" style="stroke:#181818;stroke-width:0.5;"/><text fill="#000000" font-family="sans-serif" font-size="14" lengthAdjust="spacing" textLength="119" x="420.8912" y="912.2693">Verification Email</text></g><g id="elem_Validate Input"><ellipse cx="923.5818" cy="434.0164" fill="#F1F1F1" rx="70.5818" ry="16.5164" style="stroke:#181818;stroke-width:0.5;"/><text fill="#000000" font-family="sans-serif" font-size="14" lengthAdjust="spacing" textLength="95" x="874.5984" y="437.6924">Validate Input</text></g><!--MD5=[c868f99dc3dd0a3492c79c6f0012f4d8]
entity logged_in_user--><g id="elem_logged_in_user"><ellipse cx="480.5" cy="198.5" fill="#F1F1F1" rx="8" ry="8" style="stroke:#181818;stroke-width:0.5;"/><path d="M480.5,206.5 L480.5,233.5 M467.5,214.5 L493.5,214.5 M480.5,233.5 L467.5,248.5 M480.5,233.5 L493.5,248.5 " fill="none" style="stroke:#181818;stroke-width:0.5;"/><text fill="#000000" font-family="sans-serif" font-size="14" lengthAdjust="spacing" textLength="105" x="428" y="263.5352">logged_in_user</text></g><g id="elem_Sign Out"><ellipse cx="712.9819" cy="205.2234" fill="#F1F1F1" rx="53.4819" ry="14.7234" style="stroke:#181818;stroke-width:0.5;"/><text fill="#000000" font-family="sans-serif" font-size="14" lengthAdjust="spacing" textLength="59" x="680.4819" y="209.241">Sign Out</text></g><g id="elem_Create Task"><ellipse cx="1120.9827" cy="130.9965" fill="#F1F1F1" rx="65.4827" ry="15.4965" style="stroke:#181818;stroke-width:0.5;"/><text fill="#000000" font-family="sans-serif" font-size="14" lengthAdjust="spacing" textLength="81" x="1077.4827" y="135.0141">Create Task</text></g><g id="elem_Get Tasks"><ellipse cx="1121.1499" cy="196.7637" fill="#F1F1F1" rx="58.6499" ry="14.7637" style="stroke:#181818;stroke-width:0.5;"/><text fill="#000000" font-family="sans-serif" font-size="14" lengthAdjust="spacing" textLength="66" x="1085.1499" y="200.7813">Get Tasks</text></g><g id="elem_Update Task"><ellipse cx="1120.8912" cy="329.7782" fill="#F1F1F1" rx="66.8912" ry="15.7782" style="stroke:#181818;stroke-width:0.5;"/><text fill="#000000" font-family="sans-serif" font-size="14" lengthAdjust="spacing" textLength="85" x="1075.3912" y="333.7958">Update Task</text></g><g id="elem_Delete Task"><ellipse cx="1120.7907" cy="262.8581" fill="#F1F1F1" rx="64.7907" ry="15.3581" style="stroke:#181818;stroke-width:0.5;"/><text fill="#000000" font-family="sans-serif" font-size="14" lengthAdjust="spacing" textLength="79" x="1078.2907" y="266.8757">Delete Task</text></g><g id="elem_Update Email"><ellipse cx="713.1987" cy="471.1397" fill="#F1F1F1" rx="68.6987" ry="16.1397" style="stroke:#181818;stroke-width:0.5;"/><text fill="#000000" font-family="sans-serif" font-size="14" lengthAdjust="spacing" textLength="90" x="665.671" y="475.0562">Update Email</text></g><g id="elem_Update Password"><ellipse cx="712.9685" cy="400.8937" fill="#F1F1F1" rx="79.9685" ry="18.3937" style="stroke:#181818;stroke-width:0.5;"/><text fill="#000000" font-family="sans-serif" font-size="14" lengthAdjust="spacing" textLength="118" x="653.9685" y="404.1847">Update Password</text></g><g id="elem_Start Timer"><ellipse cx="712.7687" cy="100.1537" fill="#F1F1F1" rx="63.7687" ry="15.1537" style="stroke:#181818;stroke-width:0.5;"/><text fill="#000000" font-family="sans-serif" font-size="14" lengthAdjust="spacing" textLength="76" x="671.7687" y="104.1713">Start Timer</text></g><g id="elem_End Timer"><ellipse cx="923.6033" cy="99.7838" fill="#F1F1F1" rx="61.6033" ry="14.7838" style="stroke:#181818;stroke-width:0.5;"/><text fill="#000000" font-family="sans-serif" font-size="14" lengthAdjust="spacing" textLength="70" x="885.6033" y="103.8013">End Timer</text></g><g id="elem_Authenticate"><ellipse cx="227.6072" cy="421.9214" fill="#F1F1F1" rx="67.6072" ry="15.9214" style="stroke:#181818;stroke-width:0.5;"/><text fill="#000000" font-family="sans-serif" font-size="14" lengthAdjust="spacing" textLength="87" x="181.1072" y="425.939">Authenticate</text></g><g id="elem_Register"><ellipse cx="227.2674" cy="488.2036" fill="#F1F1F1" rx="51.2674" ry="14.7036" style="stroke:#181818;stroke-width:0.5;"/><text fill="#000000" font-family="sans-serif" font-size="14" lengthAdjust="spacing" textLength="56" x="196.2893" y="492.2167">Register</text></g><g id="elem_Request Password Reset"><ellipse cx="227.6289" cy="560.0258" fill="#F1F1F1" rx="100.6289" ry="22.5258" style="stroke:#181818;stroke-width:0.5;"/><text fill="#000000" font-family="sans-serif" font-size="14" lengthAdjust="spacing" textLength="165" x="145.1289" y="563.3168">Request Password Reset</text></g><g id="elem_Reset Password"><ellipse cx="712.9732" cy="629.8946" fill="#F1F1F1" rx="74.9732" ry="17.3946" style="stroke:#181818;stroke-width:0.5;"/><text fill="#000000" font-family="sans-serif" font-size="14" lengthAdjust="spacing" textLength="106" x="659.9732" y="633.1857">Reset Password</text></g><g id="elem_Verify Email"><ellipse cx="713.1356" cy="697.9271" fill="#F1F1F1" rx="65.1356" ry="15.4271" style="stroke:#181818;stroke-width:0.5;"/><text fill="#000000" font-family="sans-serif" font-size="14" lengthAdjust="spacing" textLength="80" x="670.1356" y="701.9447">Verify Email</text></g><!--MD5=[37543c6189ad49c0288bd1868c9070d8]
entity Logic--><g id="elem_Logic"><rect fill="#F1F1F1" height="36.4883" rx="2.5" ry="2.5" style="stroke:#181818;stroke-width:0.5;" width="56" x="199.5" y="660"/><text fill="#000000" font-family="sans-serif" font-size="14" lengthAdjust="spacing" textLength="36" x="209.5" y="683.5352">Logic</text></g><!--MD5=[e21c36fbe2a5cc9fa3ac5099a6bc2563]
entity any_user--><g id="elem_any_user"><ellipse cx="36.5" cy="458.5" fill="#F1F1F1" rx="8" ry="8" style="stroke:#181818;stroke-width:0.5;"/><path d="M36.5,466.5 L36.5,493.5 M23.5,474.5 L49.5,474.5 M36.5,493.5 L23.5,508.5 M36.5,493.5 L49.5,508.5 " fill="none" style="stroke:#181818;stroke-width:0.5;"/><text fill="#000000" font-family="sans-serif" font-size="14" lengthAdjust="spacing" textLength="61" x="6" y="523.5352">any_user</text></g><!--MD5=[920f55dacc69cbaf43b0aa823f7e1721]
entity mongodb--><g id="elem_mongodb"><path d="M1248,403.5 C1248,393.5 1291.5,393.5 1291.5,393.5 C1291.5,393.5 1335,393.5 1335,403.5 L1335,428.9883 C1335,438.9883 1291.5,438.9883 1291.5,438.9883 C1291.5,438.9883 1248,438.9883 1248,428.9883 L1248,403.5 " fill="#F1F1F1" style="stroke:#181818;stroke-width:0.5;"/><path d="M1248,403.5 C1248,413.5 1291.5,413.5 1291.5,413.5 C1291.5,413.5 1335,413.5 1335,403.5 " fill="none" style="stroke:#181818;stroke-width:0.5;"/><text fill="#000000" font-family="sans-serif" font-size="14" lengthAdjust="spacing" textLength="67" x="1258" y="431.0352">mongodb</text></g><!--MD5=[8bc9054f36e856b48c2131e026e5df6e]
link Send Email to Password Reset Email--><g id="link_Send Email_Password Reset Email"><path d="M291.19,834 C318.67,834 351.55,834 382.1,834 " fill="none" id="Send Email-to-Password Reset Email" style="stroke:#181818;stroke-width:1.0;"/><polygon fill="#181818" points="386.77,834,377.77,830,381.77,834,377.77,838,386.77,834" style="stroke:#181818;stroke-width:1.0;"/></g><!--MD5=[a6f2fba01c3d43e1160a011a12b34162]
link Send Email to Verification Email--><g id="link_Send Email_Verification Email"><path d="M268.27,845.88 C310.38,858.47 377.15,878.42 424.33,892.52 " fill="none" id="Send Email-to-Verification Email" style="stroke:#181818;stroke-width:1.0;"/><polygon fill="#181818" points="428.99,894.21,421.5102,887.8028,424.1989,892.7798,419.2219,895.4686,428.99,894.21" style="stroke:#181818;stroke-width:1.0;"/></g><!--MD5=[2b0cc27abed73c38e53f462f5aaba339]
link logged_in_user to Get Tasks--><g id="link_logged_in_user_Get Tasks"><path d="M533.26,232.48 C556.41,234.28 584.05,236.12 609,237 C701.39,240.26 724.75,243.06 817,237 C904.58,231.24 1005.49,216.23 1065.93,206.32 " fill="none" id="logged_in_user-to-Get Tasks" style="stroke:#181818;stroke-width:1.0;"/><polygon fill="#181818" points="1070.65,205.38,1061.1195,202.8961,1065.7165,206.1927,1062.4199,210.7897,1070.65,205.38" style="stroke:#181818;stroke-width:1.0;"/></g><!--MD5=[a47632e742097a8b9f194c4b1e8ffdc9]
link logged_in_user to Update Task--><g id="link_logged_in_user_Update Task"><path d="M533.26,247.68 C556.17,255.7 583.63,264.39 609,270 C764,304.26 950.05,319.87 1049.34,326.21 " fill="none" id="logged_in_user-to-Update Task" style="stroke:#181818;stroke-width:1.0;"/><polygon fill="#181818" points="1054.17,326.58,1045.4395,322.0217,1049.1799,326.2654,1044.9362,330.0059,1054.17,326.58" style="stroke:#181818;stroke-width:1.0;"/></g><!--MD5=[eafd27d7a9731761ad5832b90180d613]
link logged_in_user to Delete Task--><g id="link_logged_in_user_Delete Task"><path d="M533.4,238.19 C556.46,242.29 583.99,246.61 609,249 C766,264.01 951.27,264.93 1049.91,264.08 " fill="none" id="logged_in_user-to-Delete Task" style="stroke:#181818;stroke-width:1.0;"/><polygon fill="#181818" points="1054.7,264.03,1045.666,260.1073,1049.7002,264.0729,1045.7346,268.107,1054.7,264.03" style="stroke:#181818;stroke-width:1.0;"/></g><!--MD5=[46c9a91ff24151055500237620e6b57d]
link Create Task to mongodb--><g id="link_Create Task_mongodb"><path d="M1182.93,136.33 C1202.29,140.94 1222.22,149.24 1236,164 C1266.12,196.27 1282.18,328.39 1287.96,387.35 " fill="none" id="Create Task-to-mongodb" style="stroke:#181818;stroke-width:1.0;"/><polygon fill="#181818" points="1288.52,392.16,1291.655,382.8234,1288.0493,387.1822,1283.6905,383.5765,1288.52,392.16" style="stroke:#181818;stroke-width:1.0;"/></g><!--MD5=[b6db75091b1808ca23e0b7172396da76]
link Get Tasks to mongodb--><g id="link_Get Tasks_mongodb"><path d="M1177.03,201.71 C1197.91,206.12 1220.39,214.44 1236,230 C1278.7,272.57 1288.33,346.67 1290.26,387.31 " fill="none" id="Get Tasks-to-mongodb" style="stroke:#181818;stroke-width:1.0;"/><polygon fill="#181818" points="1290.49,392.05,1294.1271,382.8973,1290.2902,387.054,1286.1335,383.2171,1290.49,392.05" style="stroke:#181818;stroke-width:1.0;"/></g><!--MD5=[48966a1c9b628070942858ea90c4e584]
link Update Task to mongodb--><g id="link_Update Task_mongodb"><path d="M1164.54,342.58 C1186.59,349.94 1213.53,360.3 1236,373 C1244.25,377.66 1252.58,383.52 1260.16,389.4 " fill="none" id="Update Task-to-mongodb" style="stroke:#181818;stroke-width:1.0;"/><polygon fill="#181818" points="1263.77,393.05,1259.198,384.3266,1259.8504,389.9458,1254.2312,390.5981,1263.77,393.05" style="stroke:#181818;stroke-width:1.0;"/></g><!--MD5=[eada6e0503ed2c676fdf01cf721c1d4d]
link Delete Task to mongodb--><g id="link_Delete Task_mongodb"><path d="M1180.04,269.81 C1199.61,274.54 1220.42,282.52 1236,296 C1263.47,319.76 1277.82,360.18 1284.77,387.47 " fill="none" id="Delete Task-to-mongodb" style="stroke:#181818;stroke-width:1.0;"/><polygon fill="#181818" points="1286.14,392.09,1287.8646,382.3933,1284.9408,387.2359,1280.0981,384.3121,1286.14,392.09" style="stroke:#181818;stroke-width:1.0;"/></g><!--MD5=[67fb495edb50e48823a23c67b7633c5c]
link logged_in_user to Update Email--><g id="link_logged_in_user_Update Email"><path d="M495.34,266.47 C514.09,313.28 551.91,391.68 609,437 C621.68,447.06 637.45,454.2 652.81,459.24 " fill="none" id="logged_in_user-to-Update Email" style="stroke:#181818;stroke-width:1.0;"/><polygon fill="#181818" points="657.45,461.01,650.0639,454.495,652.6801,459.5105,647.6647,462.1268,657.45,461.01" style="stroke:#181818;stroke-width:1.0;"/></g><!--MD5=[d03966ad01e080e783fac73f6d2dca13]
link logged_in_user to Update Password--><g id="link_logged_in_user_Update Password"><path d="M521.9,266.4 C546.25,288.71 578.39,316.72 609,339 C630.16,354.4 655.3,369.58 675.44,381.07 " fill="none" id="logged_in_user-to-Update Password" style="stroke:#181818;stroke-width:1.0;"/><polygon fill="#181818" points="679.45,383.91,673.5755,376.0049,675.0948,381.4539,669.6458,382.9733,679.45,383.91" style="stroke:#181818;stroke-width:1.0;"/></g><!--MD5=[8248f1752d82eab32a36dd25bffa6447]
link Update Email to Validate Input--><g id="link_Update Email_Validate Input"><path d="M768.51,461.33 C798.55,456 835.8,449.39 866.13,444 " fill="none" id="Update Email-Validate Input" style="stroke:#181818;stroke-width:1.0;stroke-dasharray:7.0,7.0;"/></g><!--MD5=[ef090ed8ad6553fa7aacd882d9121dc9]
link Update Password to Validate Input--><g id="link_Update Password_Validate Input"><path d="M779.97,411.44 C806.93,415.71 837.86,420.6 864.01,424.74 " fill="none" id="Update Password-Validate Input" style="stroke:#181818;stroke-width:1.0;stroke-dasharray:7.0,7.0;"/></g><!--MD5=[3964de37340e8a45cead55497bbfe5a1]
link Update Email to mongodb--><g id="link_Update Email_mongodb"><path d="M745.96,485.46 C832.19,522.14 1074.03,609.28 1236,513 C1260.95,498.17 1275.39,467.33 1283.06,444.38 " fill="none" id="Update Email-to-mongodb" style="stroke:#181818;stroke-width:1.0;"/><polygon fill="#181818" points="1284.86,439.73,1278.3049,447.0806,1283.3346,444.4916,1285.9235,449.5213,1284.86,439.73" style="stroke:#181818;stroke-width:1.0;"/></g><!--MD5=[0f64deac5585d050b1dccc79f58d4dfd]
link Update Password to mongodb--><g id="link_Update Password_mongodb"><path d="M775.17,412.92 C790.28,418.25 805.43,425.93 817,437 C827.38,446.93 817.11,458.95 829,467 C957.11,553.74 1152.52,481.75 1242.32,440.29 " fill="none" id="Update Password-to-mongodb" style="stroke:#181818;stroke-width:1.0;"/><polygon fill="#181818" points="1246.56,437.85,1236.7124,438.0074,1242.024,439.9535,1240.0779,445.265,1246.56,437.85" style="stroke:#181818;stroke-width:1.0;"/></g><!--MD5=[05fca040ee84c0876a94760e424434f7]
link logged_in_user to Start Timer--><g id="link_logged_in_user_Start Timer"><path d="M533.23,199.27 C578.96,173.88 644.09,137.71 681.81,116.76 " fill="none" id="logged_in_user-to-Start Timer" style="stroke:#181818;stroke-width:1.0;"/><polygon fill="#181818" points="685.72,114.04,675.9112,114.9278,681.3526,116.4743,679.8061,121.9156,685.72,114.04" style="stroke:#181818;stroke-width:1.0;"/></g><!--MD5=[94d7aa3b3abe139f2146c78c0a9c4e76]
link Start Timer to End Timer--><g id="link_Start Timer_End Timer"><path d="M777.41,100 C802.14,100 830.52,100 855.58,100 " fill="none" id="Start Timer-to-End Timer" style="stroke:#181818;stroke-width:1.0;"/><polygon fill="#181818" points="860.54,100,851.54,96,855.54,100,851.54,104,860.54,100" style="stroke:#181818;stroke-width:1.0;"/></g><!--MD5=[ac4f64b7fa600bfe765cf369b0839e02]
link End Timer to Create Task--><g id="link_End Timer_Create Task"><path d="M976.12,108.19 C1001.89,112.27 1033.21,117.24 1060.04,121.49 " fill="none" id="End Timer-to-Create Task" style="stroke:#181818;stroke-width:1.0;"/><polygon fill="#181818" points="1064.69,122.39,1056.432,117.023,1059.7524,121.6028,1055.1725,124.9232,1064.69,122.39" style="stroke:#181818;stroke-width:1.0;"/></g><!--MD5=[bca8fa896550ceace48fcd756b74cf69]
link Register to Validate Input--><g id="link_Register_Validate Input"><path d="M268.16,497.28 C364.62,518.1 618.17,562.25 817,503 C851.4,492.75 885.02,467.32 904.74,450.36 " fill="none" id="Register-Validate Input" style="stroke:#181818;stroke-width:1.0;stroke-dasharray:7.0,7.0;"/></g><!--MD5=[58a7eb2eba9b14abc611ef0320ae55dd]
link Request Password Reset to Validate Input--><g id="link_Request Password Reset_Validate Input"><path d="M304.39,574.77 C420.39,593.65 646.31,615.67 817,541 C860.74,521.87 895.86,475.41 912.33,450.47 " fill="none" id="Request Password Reset-Validate Input" style="stroke:#181818;stroke-width:1.0;stroke-dasharray:7.0,7.0;"/></g><!--MD5=[80f1ac2c3939d64756314e73ba4e6b17]
link Request Password Reset to Send Email--><g id="link_Request Password Reset_Send Email"><path d="M127.53,562.58 C109.85,566.98 92.73,574.27 79,586 C72.75,591.34 74.35,595.39 73,603.5 C68.14,632.65 68.14,707.35 73,736.5 C74.35,744.61 73.68,747.73 79,754 C106.22,786.09 149.67,807.36 182.55,819.85 " fill="none" id="Request Password Reset-to-Send Email" style="stroke:#181818;stroke-width:1.0;"/><polygon fill="#181818" points="187.14,821.92,180.0991,815.0334,182.4537,820.1769,177.3101,822.5315,187.14,821.92" style="stroke:#181818;stroke-width:1.0;"/></g><!--MD5=[7714ae5c8a216905f17dd08283a54fdd]
link Password Reset Email to Reset Password--><g id="link_Password Reset Email_Reset Password"><path d="M492.01,812.85 C510.72,777.27 553.15,705.38 609,665 C621.68,655.83 636.93,648.94 651.77,643.8 " fill="none" id="Password Reset Email-to-Reset Password" style="stroke:#181818;stroke-width:1.0;"/><polygon fill="#181818" points="656.21,641.98,646.4087,641.0136,651.4637,643.5526,648.9248,648.6076,656.21,641.98" style="stroke:#181818;stroke-width:1.0;"/></g><!--MD5=[0c2975a45090ef34fcb3a78b3a4d2778]
link Verification Email to Verify Email--><g id="link_Verification Email_Verify Email"><path d="M543.96,897.3 C562.3,891.77 581.56,883.7 597,872 C651.6,830.63 688.31,755.37 703.75,718.91 " fill="none" id="Verification Email-to-Verify Email" style="stroke:#181818;stroke-width:1.0;"/><polygon fill="#181818" points="705.87,714.82,698.7087,721.5814,703.9419,719.4333,706.09,724.6664,705.87,714.82" style="stroke:#181818;stroke-width:1.0;"/></g><!--MD5=[f5860f8c0a476f822fdb47fa41fc4aa6]
link Reset Password to Validate Input--><g id="link_Reset Password_Validate Input"><path d="M747.63,614.17 C768.84,603.24 796.08,587.39 817,569 C858.56,532.47 895.42,477.76 912.47,450.57 " fill="none" id="Reset Password-Validate Input" style="stroke:#181818;stroke-width:1.0;stroke-dasharray:7.0,7.0;"/></g><!--MD5=[a619716ee86bdc4944c369bc46885afc]
link Reset Password to mongodb--><g id="link_Reset Password_mongodb"><path d="M773.12,640.81 C878.44,656.51 1100.21,673.03 1236,565 C1272.88,535.66 1284.81,478.98 1288.66,444.61 " fill="none" id="Reset Password-to-mongodb" style="stroke:#181818;stroke-width:1.0;"/><polygon fill="#181818" points="1289.25,439.88,1284.3451,448.4206,1288.7355,444.8535,1292.3027,449.2438,1289.25,439.88" style="stroke:#181818;stroke-width:1.0;"/></g><!--MD5=[fdd39208124270a2ea802d3dace74558]
link Verify Email to mongodb--><g id="link_Verify Email_mongodb"><path d="M757.92,709.53 C856.71,732.57 1098.51,772.47 1236,653 C1267.21,625.88 1282.57,501.53 1288.06,444.6 " fill="none" id="Verify Email-to-mongodb" style="stroke:#181818;stroke-width:1.0;"/><polygon fill="#181818" points="1288.62,439.65,1283.7882,448.2322,1288.148,444.6277,1291.7525,448.9874,1288.62,439.65" style="stroke:#181818;stroke-width:1.0;"/></g><!--MD5=[46b85bd47260e7c09b5ab852142b8c2b]
link Validate Input to mongodb--><g id="link_Validate Input_mongodb"><path d="M988.25,440.81 C1060.52,441.29 1176.73,435.26 1241.99,427.37 " fill="none" id="Validate Input-to-mongodb" style="stroke:#181818;stroke-width:1.0;"/><polygon fill="#181818" points="1246.76,426.65,1237.3374,423.7839,1241.7977,427.2632,1238.3185,431.7235,1246.76,426.65" style="stroke:#181818;stroke-width:1.0;"/></g><!--MD5=[46b85bd47260e7c09b5ab852142b8c2b]
link Validate Input to mongodb--><g id="link_Validate Input_mongodb"><path d="M973.48,422.04 C1043.58,413.32 1171.76,407.02 1241.74,408.87 " fill="none" id="Validate Input-to-mongodb-1" style="stroke:#181818;stroke-width:1.0;"/><polygon fill="#181818" points="1246.5,409.04,1237.6301,404.7593,1241.5025,408.8829,1237.3788,412.7553,1246.5,409.04" style="stroke:#181818;stroke-width:1.0;"/></g><!--MD5=[c0c8e88fa1611bb49b93bc8896453711]
link any_user to Register--><g id="link_any_user_Register"><path d="M67.45,488 C94.9,488 136.27,488 169.94,488 " fill="none" id="any_user-to-Register" style="stroke:#181818;stroke-width:1.0;"/><polygon fill="#181818" points="174.7,488,165.7,484,169.7,488,165.7,492,174.7,488" style="stroke:#181818;stroke-width:1.0;"/></g><!--MD5=[a00f7f2224c743b8ea1f1cc0d4ae88fd]
link any_user to Request Password Reset--><g id="link_any_user_Request Password Reset"><path d="M67.42,513.2 C71.18,515.72 75.09,518.06 79,520 C99.37,530.12 122.65,537.94 144.59,543.88 " fill="none" id="any_user-to-Request Password Reset" style="stroke:#181818;stroke-width:1.0;"/><polygon fill="#181818" points="149.13,545.35,141.4623,539.1689,144.2984,544.0635,139.4038,546.8996,149.13,545.35" style="stroke:#181818;stroke-width:1.0;"/></g><!--MD5=[205135b50c94641f341c3b1776a14c1b]
link any_user to Authenticate--><g id="link_any_user_Authenticate"><path d="M67.35,462.65 C71.13,460.16 75.05,457.87 79,456 C104.84,443.78 135.35,435.81 161.89,430.68 " fill="none" id="any_user-to-Authenticate" style="stroke:#181818;stroke-width:1.0;"/><polygon fill="#181818" points="166.49,429.63,156.9102,427.3437,161.5743,430.5445,158.3735,435.2087,166.49,429.63" style="stroke:#181818;stroke-width:1.0;"/></g><!--MD5=[eae94de038577ef8b0d25e1c0f372cbf]
link Authenticate to logged_in_user--><g id="link_Authenticate_logged_in_user"><path d="M248.62,406.45 C286.52,377.15 369.69,312.87 425.16,270 " fill="none" id="Authenticate-to-logged_in_user" style="stroke:#181818;stroke-width:1.0;"/><polygon fill="#181818" points="428.77,266.44,419.2077,268.7985,424.8202,269.5058,424.1129,275.1182,428.77,266.44" style="stroke:#181818;stroke-width:1.0;"/></g><!--MD5=[c09ebbb6d4a21a80021ab6d472add430]
link Register to logged_in_user--><g id="link_Register_logged_in_user"><path d="M277.31,483.94 C301.8,479.81 330.7,471.53 352,455 C412.63,407.94 448.93,323.43 466.49,271.86 " fill="none" id="Register-to-logged_in_user" style="stroke:#181818;stroke-width:1.0;"/><polygon fill="#181818" points="468.34,267.36,461.6926,274.6272,466.7546,272.102,469.2798,277.1639,468.34,267.36" style="stroke:#181818;stroke-width:1.0;"/></g><!--MD5=[6deb6420c3f3ed538710f52ca0e5492f]
link logged_in_user to Sign Out--><g id="link_logged_in_user_Sign Out"><path d="M533.23,222.84 C569.89,219.18 619.03,214.28 656.51,210.54 " fill="none" id="logged_in_user-to-Sign Out" style="stroke:#181818;stroke-width:1.0;"/><polygon fill="#181818" points="661.42,209.95,652.0658,206.868,656.445,210.4489,652.8641,214.8281,661.42,209.95" style="stroke:#181818;stroke-width:1.0;"/></g><!--MD5=[d84ef885dc6c9cf69e30fce7a4ae3719]
@startuml
left to right direction
skinparam packageStyle rectangle
actor any_user
database mongodb 
rectangle Mailgun {
    rectangle (Send Email)
}
rectangle Email {
    rectangle (Password Reset Email)
    (Send Email) - -> (Password Reset Email)
    rectangle (Verification Email)
    (Send Email) - -> (Verification Email)
}
rectangle Website {
  rectangle Backend {
    rectangle (Validate Input)
  }
  rectangle Frontend {
    actor logged_in_user
  }
  rectangle Frontend {
    usecase "Sign Out"
  }
  rectangle Tasks {
      usecase "Create Task"
      usecase "Get Tasks"
      usecase "Update Task"
      usecase "Delete Task"
      logged_in_user - -> (Get Tasks)
      logged_in_user - -> (Update Task)
      logged_in_user - -> (Delete Task)
      (Create Task) - -> mongodb
      (Get Tasks) - -> mongodb
      (Update Task) - -> mongodb
      (Delete Task) - -> mongodb
  }
  rectangle Settings {
    usecase "Update Email"
    usecase "Update Password"
    (logged_in_user) - -> (Update Email)
    (logged_in_user) - -> (Update Password)
    (Update Email) .. (Validate Input)
    (Update Password) .. (Validate Input)
    (Update Email) - -> mongodb
    (Update Password) - -> mongodb
  }
  rectangle Timer {
    usecase "Start Timer"
    usecase "End Timer"
    logged_in_user - -> (Start Timer)
    (Start Timer) - -> (End Timer)
    (End Timer) - -> (Create Task)
  }
  rectangle Public {
    usecase "Authenticate"
    usecase "Register"
    (Register) .. (Validate Input)
    usecase "Request Password Reset"
    (Request Password Reset) .. (Validate Input)
    (Request Password Reset) - -> (Send Email)
  }
  rectangle EmailLinks {
    usecase "Reset Password"
    usecase "Verify Email"
    (Password Reset Email) - -> (Reset Password)
    (Verification Email) - -> (Verify Email)
    (Reset Password) .. (Validate Input)
    (Reset Password) - -> mongodb
    (Verify Email) - -> mongodb
  }
  rectangle Logic {
    (Validate Input) - -> mongodb
    any_user - -> Register
    any_user - -> (Request Password Reset)
    any_user - -> Authenticate
    Authenticate - -> logged_in_user
    Register - -> logged_in_user
    logged_in_user - -> (Sign Out)
    (Validate Input) - -> mongodb
  }
}
@enduml

PlantUML version 1.2022.7(Mon Aug 22 13:01:30 EDT 2022)
(GPL source distribution)
Java Runtime: OpenJDK Runtime Environment
JVM: OpenJDK 64-Bit Server VM
Default Encoding: UTF-8
Language: en
Country: US
--></g></svg>